# xmcd CD database file
#
# Track frame offsets:
#	150
#	11448
#	22961
#	35473
#	47417
#	57120
#	70986
#	81236
#	93735
#	106161
#	122194
#
# Disc length: 1774 seconds
#
# Revision: 0
# Processed by: cddbd v1.5.2PL0 Copyright (c) Steve Scherf et al.
# Submitted via: CDex 1.70beta3
#
DISCID=8506ec0b
DTITLE=Lalo Schifrin - There's A Whole Lalo Schifrin Goin' On
DYEAR=1968
DGENRE=Jazz
TTITLE0=Secret Code
TTITLE1=Dissolving
TTITLE2=Machinations
TTITLE3=Bride Of The Wind
TTITLE4=Life Insurance
TTITLE5=How To Open At Will The Most Beautiful Window
TTITLE6=Vaccinated Mushrooms
TTITLE7=Two Petals, A Flower And A Young Girl
TTITLE8=Wheat Germ Landscapes
TTITLE9=The Gentle Earthquake
TTITLE10=Hawks Vs. Doves
EXTD=YEAR: 1968
EXTT0=
EXTT1=
EXTT2=
EXTT3=
EXTT4=
EXTT5=
EXTT6=
EXTT7=
EXTT8=
EXTT9=
EXTT10=
PLAYORDER=
